# xmcd
# Copyright (C) 1995-1998 Ti Kan
#
# Track frame offsets:
#       150
#       16235
#       33804
#       50901
#       70324
#       90804
#       109565
#       126129
#       146873
#       168346
#       185943
#       204240
#
# Disc length: 2981 seconds
#
# Revision: 2
# Processed by: cddbd v1.5.1PL0 Copyright (c) Steve Scherf et al.
# Submitted via: CD-Transfer v1.0
#
DISCID=a20ba30c
DTITLE=Timberline - Play With Fire
DYEAR=2005
DGENRE=
TTITLE0=My Own
TTITLE1=Even If (It's Not)
TTITLE2=The One Who Doesn't Ask
TTITLE3=Happy Within
TTITLE4=Born Again
TTITLE5=One Thing I Know
TTITLE6=Only God Knows
TTITLE7=Towards The Sun
TTITLE8=Even Angels Must Die
TTITLE9=Antisocial Fool
TTITLE10=I Will Forget
TTITLE11=Proud
EXTD=
EXTT0=
EXTT1=
EXTT2=
EXTT3=
EXTT4=
EXTT5=
EXTT6=
EXTT7=
EXTT8=
EXTT9=
EXTT10=
EXTT11=
PLAYORDER=
